<svg width="12" height="11" viewBox="0 0 12 11" fill="none" xmlns="http://www.w3.org/2000/svg">
<path d="M8.84731 8.8C8.23353 8.8 7.7414 9.2895 7.7414 9.9C7.7414 10.1917 7.85791 10.4715 8.06531 10.6778C8.27271 10.8841 8.55401 11 8.84731 11C9.14062 11 9.42191 10.8841 9.62931 10.6778C9.83671 10.4715 9.95323 10.1917 9.95323 9.9C9.95323 9.60826 9.83671 9.32847 9.62931 9.12218C9.42191 8.91589 9.14062 8.8 8.84731 8.8ZM0 0V1.1H1.10591L3.09656 5.2745L2.34454 6.622C2.26159 6.776 2.21183 6.9575 2.21183 7.15C2.21183 7.44174 2.32834 7.72153 2.53574 7.92782C2.74314 8.13411 3.02444 8.25 3.31774 8.25H9.95323V7.15H3.54998C3.51332 7.15 3.47816 7.13551 3.45223 7.10973C3.42631 7.08394 3.41174 7.04897 3.41174 7.0125C3.41174 6.985 3.41727 6.963 3.42833 6.9465L3.92599 6.05H8.04552C8.46024 6.05 8.82519 5.819 9.0132 5.4835L10.9928 1.925C11.0315 1.837 11.0591 1.7435 11.0591 1.65C11.0591 1.50413 11.0009 1.36424 10.8972 1.26109C10.7935 1.15795 10.6528 1.1 10.5062 1.1H2.32795L1.80817 0M3.31774 8.8C2.70396 8.8 2.21183 9.2895 2.21183 9.9C2.21183 10.1917 2.32834 10.4715 2.53574 10.6778C2.74314 10.8841 3.02444 11 3.31774 11C3.61105 11 3.89234 10.8841 4.09974 10.6778C4.30714 10.4715 4.42366 10.1917 4.42366 9.9C4.42366 9.60826 4.30714 9.32847 4.09974 9.12218C3.89234 8.91589 3.61105 8.8 3.31774 8.8Z" fill="#BFBFBF"/>
</svg>
