<svg width="14" height="10" viewBox="0 0 14 10" fill="none" xmlns="http://www.w3.org/2000/svg">
<path d="M8.79704 0C10.1303 0 11.4089 0.526784 12.3516 1.46447C13.2943 2.40215 13.8239 3.67392 13.8239 5C13.8239 6.32608 13.2943 7.59785 12.3516 8.53553C11.4089 9.47322 10.1303 10 8.79704 10C7.46383 10 6.18523 9.47322 5.2425 8.53553C4.29978 7.59785 3.77016 6.32608 3.77016 5C3.77016 3.67392 4.29978 2.40215 5.2425 1.46447C6.18523 0.526784 7.46383 0 8.79704 0ZM8.79704 1.25C7.79714 1.25 6.83818 1.64509 6.13114 2.34835C5.4241 3.05161 5.02688 4.00544 5.02688 5C5.02688 5.99456 5.4241 6.94839 6.13114 7.65165C6.83818 8.35491 7.79714 8.75 8.79704 8.75C9.79695 8.75 10.7559 8.35491 11.463 7.65165C12.17 6.94839 12.5672 5.99456 12.5672 5C12.5672 4.00544 12.17 3.05161 11.463 2.34835C10.7559 1.64509 9.79695 1.25 8.79704 1.25ZM8.16868 2.5H9.11123V4.8625L10.5753 6.31875L9.90924 6.98125L8.16868 5.25V2.5ZM0.62836 8.75C0.461709 8.75 0.301883 8.68415 0.184042 8.56694C0.066202 8.44973 0 8.29076 0 8.125C0 7.95924 0.066202 7.80027 0.184042 7.68306C0.301883 7.56585 0.461709 7.5 0.62836 7.5H3.03498C3.22977 7.94375 3.48112 8.3625 3.77016 8.75H0.62836ZM1.25672 5.625C1.09007 5.625 0.930243 5.55915 0.812403 5.44194C0.694562 5.32473 0.62836 5.16576 0.62836 5C0.62836 4.83424 0.694562 4.67527 0.812403 4.55806C0.930243 4.44085 1.09007 4.375 1.25672 4.375H2.54486L2.51344 5L2.54486 5.625H1.25672ZM1.88508 2.5C1.71843 2.5 1.5586 2.43415 1.44076 2.31694C1.32292 2.19973 1.25672 2.04076 1.25672 1.875C1.25672 1.70924 1.32292 1.55027 1.44076 1.43306C1.5586 1.31585 1.71843 1.25 1.88508 1.25H3.77016C3.48112 1.6375 3.22977 2.05625 3.03498 2.5H1.88508Z" fill="#BFBFBF"/>
</svg>
