<svg width="53" height="14" viewBox="0 0 53 14" fill="none" xmlns="http://www.w3.org/2000/svg">
<mask id="path-1-inside-1_3166_603" fill="white">
<path fill-rule="evenodd" clip-rule="evenodd" d="M0 2.90137C0 1.7968 0.895431 0.901367 2 0.901367H51C52.1046 0.901367 53 1.7968 53 2.90137V3.93681C51.3039 4.17943 50 5.63813 50 7.40137C50 9.1646 51.3039 10.6233 53 10.8659V11.9014C53 13.0059 52.1046 13.9014 51 13.9014H2C0.895429 13.9014 0 13.0059 0 11.9014V10.8659C1.69615 10.6233 3 9.1646 3 7.40137C3 5.63813 1.69615 4.17943 0 3.93681V2.90137Z"/>
</mask>
<path fill-rule="evenodd" clip-rule="evenodd" d="M0 2.90137C0 1.7968 0.895431 0.901367 2 0.901367H51C52.1046 0.901367 53 1.7968 53 2.90137V3.93681C51.3039 4.17943 50 5.63813 50 7.40137C50 9.1646 51.3039 10.6233 53 10.8659V11.9014C53 13.0059 52.1046 13.9014 51 13.9014H2C0.895429 13.9014 0 13.0059 0 11.9014V10.8659C1.69615 10.6233 3 9.1646 3 7.40137C3 5.63813 1.69615 4.17943 0 3.93681V2.90137Z" fill="#E3FBE0"/>
<path d="M53 3.93681L53.0283 4.1348L53.2 4.11024V3.93681H53ZM53 10.8659H53.2V10.6925L53.0283 10.6679L53 10.8659ZM0 10.8659L-0.0283195 10.6679L-0.2 10.6925V10.8659H0ZM0 3.93681H-0.2V4.11024L-0.0283195 4.1348L0 3.93681ZM2 0.701367C0.784974 0.701367 -0.2 1.68634 -0.2 2.90137H0.2C0.2 1.90725 1.00589 1.10137 2 1.10137V0.701367ZM51 0.701367H2V1.10137H51V0.701367ZM53.2 2.90137C53.2 1.68634 52.215 0.701367 51 0.701367V1.10137C51.9941 1.10137 52.8 1.90725 52.8 2.90137H53.2ZM53.2 3.93681V2.90137H52.8V3.93681H53.2ZM50.2 7.40137C50.2 5.73906 51.4293 4.36352 53.0283 4.1348L52.9717 3.73883C51.1784 3.99533 49.8 5.5372 49.8 7.40137H50.2ZM53.0283 10.6679C51.4293 10.4392 50.2 9.06367 50.2 7.40137H49.8C49.8 9.26553 51.1784 10.8074 52.9717 11.0639L53.0283 10.6679ZM53.2 11.9014V10.8659H52.8V11.9014H53.2ZM51 14.1014C52.215 14.1014 53.2 13.1164 53.2 11.9014H52.8C52.8 12.8955 51.9941 13.7014 51 13.7014V14.1014ZM2 14.1014H51V13.7014H2V14.1014ZM-0.2 11.9014C-0.2 13.1164 0.784972 14.1014 2 14.1014V13.7014C1.00589 13.7014 0.2 12.8955 0.2 11.9014H-0.2ZM-0.2 10.8659V11.9014H0.2V10.8659H-0.2ZM2.8 7.40137C2.8 9.06367 1.57072 10.4392 -0.0283195 10.6679L0.0283195 11.0639C1.82158 10.8074 3.2 9.26553 3.2 7.40137H2.8ZM-0.0283195 4.1348C1.57072 4.36352 2.8 5.73906 2.8 7.40137H3.2C3.2 5.5372 1.82158 3.99533 0.0283195 3.73883L-0.0283195 4.1348ZM-0.2 2.90137V3.93681H0.2V2.90137H-0.2Z" fill="#5AC750" mask="url(#path-1-inside-1_3166_603)"/>
<path d="M10.1564 10.9014H8.98641V5.75137L7.89641 6.88137L7.21641 6.17137L9.13641 4.23137H10.1564V10.9014ZM15.1452 10.7214C14.7919 10.9214 14.3919 11.0214 13.9452 11.0214C13.4986 11.0214 13.0986 10.9214 12.7452 10.7214C12.3919 10.5214 12.1119 10.2547 11.9052 9.92137C11.6986 9.58803 11.5419 9.22137 11.4352 8.82137C11.3286 8.42137 11.2752 8.0047 11.2752 7.57137C11.2752 7.13803 11.3286 6.72137 11.4352 6.32137C11.5419 5.92137 11.6986 5.55803 11.9052 5.23137C12.1119 4.89803 12.3919 4.63137 12.7452 4.43137C13.0986 4.23137 13.4986 4.13137 13.9452 4.13137C14.3919 4.13137 14.7919 4.23137 15.1452 4.43137C15.4986 4.63137 15.7786 4.89803 15.9852 5.23137C16.1919 5.55803 16.3486 5.92137 16.4552 6.32137C16.5619 6.72137 16.6152 7.13803 16.6152 7.57137C16.6152 8.0047 16.5619 8.42137 16.4552 8.82137C16.3486 9.22137 16.1919 9.58803 15.9852 9.92137C15.7786 10.2547 15.4986 10.5214 15.1452 10.7214ZM12.8252 9.30137C13.0652 9.7547 13.4386 9.98137 13.9452 9.98137C14.4519 9.98137 14.8252 9.7547 15.0652 9.30137C15.3052 8.84803 15.4252 8.27137 15.4252 7.57137C15.4252 7.1247 15.3786 6.72803 15.2852 6.38137C15.1986 6.0347 15.0386 5.74803 14.8052 5.52137C14.5786 5.28803 14.2919 5.17137 13.9452 5.17137C13.5986 5.17137 13.3086 5.28803 13.0752 5.52137C12.8486 5.74803 12.6886 6.0347 12.5952 6.38137C12.5086 6.72803 12.4652 7.1247 12.4652 7.57137C12.4652 8.27137 12.5852 8.84803 12.8252 9.30137ZM18.9573 7.44137C18.4707 7.44137 18.074 7.28803 17.7673 6.98137C17.4607 6.66803 17.3073 6.2747 17.3073 5.80137C17.3073 5.32137 17.4607 4.9247 17.7673 4.61137C18.074 4.29137 18.4707 4.13137 18.9573 4.13137C19.4507 4.13137 19.8507 4.29137 20.1573 4.61137C20.4707 4.9247 20.6273 5.32137 20.6273 5.80137C20.6273 6.2747 20.4707 6.66803 20.1573 6.98137C19.8507 7.28803 19.4507 7.44137 18.9573 7.44137ZM18.9773 10.9014H18.3173L22.5773 4.23137H23.2473L18.9773 10.9014ZM23.7373 10.5614C23.4307 10.868 23.034 11.0214 22.5473 11.0214C22.0607 11.0214 21.664 10.868 21.3573 10.5614C21.0507 10.248 20.8973 9.8547 20.8973 9.38137C20.8973 8.90137 21.0507 8.5047 21.3573 8.19137C21.664 7.87137 22.0607 7.71137 22.5473 7.71137C23.034 7.71137 23.4307 7.87137 23.7373 8.19137C24.0507 8.51137 24.2073 8.90803 24.2073 9.38137C24.2073 9.8547 24.0507 10.248 23.7373 10.5614ZM18.9573 6.78137C19.2173 6.78137 19.4307 6.69137 19.5973 6.51137C19.764 6.3247 19.8473 6.08803 19.8473 5.80137C19.8473 5.50137 19.764 5.26137 19.5973 5.08137C19.4307 4.8947 19.2173 4.80137 18.9573 4.80137C18.6973 4.80137 18.484 4.8947 18.3173 5.08137C18.1573 5.26137 18.0773 5.50137 18.0773 5.80137C18.0773 6.08803 18.1607 6.3247 18.3273 6.51137C18.494 6.69137 18.704 6.78137 18.9573 6.78137ZM21.9073 10.0914C22.074 10.2714 22.2873 10.3614 22.5473 10.3614C22.8073 10.3614 23.0207 10.2714 23.1873 10.0914C23.354 9.9047 23.4373 9.66803 23.4373 9.38137C23.4373 9.08137 23.354 8.84137 23.1873 8.66137C23.0207 8.4747 22.8073 8.38137 22.5473 8.38137C22.2873 8.38137 22.074 8.4747 21.9073 8.66137C21.7473 8.84137 21.6673 9.08137 21.6673 9.38137C21.6673 9.66803 21.7473 9.9047 21.9073 10.0914ZM33.3266 10.0514C32.6866 10.698 31.87 11.0214 30.8766 11.0214C29.8833 11.0214 29.0666 10.698 28.4266 10.0514C27.7866 9.39803 27.4666 8.57137 27.4666 7.57137C27.4666 6.57137 27.7866 5.74803 28.4266 5.10137C29.0666 4.44803 29.8833 4.12137 30.8766 4.12137C31.87 4.12137 32.6866 4.44803 33.3266 5.10137C33.9666 5.74803 34.2866 6.57137 34.2866 7.57137C34.2866 8.57137 33.9666 9.39803 33.3266 10.0514ZM30.8766 9.98137C31.5366 9.98137 32.07 9.7547 32.4766 9.30137C32.8833 8.84137 33.0866 8.2647 33.0866 7.57137C33.0866 6.87137 32.8833 6.2947 32.4766 5.84137C32.07 5.38803 31.5366 5.16137 30.8766 5.16137C30.21 5.16137 29.6733 5.38803 29.2666 5.84137C28.8666 6.2947 28.6666 6.87137 28.6666 7.57137C28.6666 8.27137 28.8666 8.84803 29.2666 9.30137C29.6733 9.7547 30.21 9.98137 30.8766 9.98137ZM36.5831 10.9014H35.4131V4.23137H39.9831V5.26137H36.5831V6.99137H39.9131V8.02137H36.5831V10.9014ZM42.1984 10.9014H41.0284V4.23137H45.5984V5.26137H42.1984V6.99137H45.5284V8.02137H42.1984V10.9014Z" fill="#5AC750"/>
</svg>
