<svg width="68" height="28" viewBox="0 0 68 28" fill="none" xmlns="http://www.w3.org/2000/svg">
<path d="M30 3C30 1.34315 31.3431 0 33 0H65C66.6569 0 68 1.34315 68 3V10C68 11.6569 66.6569 13 65 13H33C31.3431 13 30 11.6569 30 10V3Z" fill="black" fill-opacity="0.5"/>
<path d="M0 18C0 16.3431 1.34315 15 3 15H15C16.6569 15 18 16.3431 18 18V25C18 26.6569 16.6569 28 15 28H3C1.34315 28 0 26.6569 0 25V18Z" fill="black" fill-opacity="0.5"/>
<path d="M56.08 10.12C55.6333 10.12 55.24 10.0267 54.9 9.84C54.56 9.65333 54.29 9.4 54.09 9.08C53.8967 8.75333 53.75 8.39 53.65 7.99C53.5567 7.58333 53.51 7.14667 53.51 6.68C53.51 6.05333 53.6033 5.48667 53.79 4.98C53.9767 4.47333 54.2767 4.05667 54.69 3.73C55.11 3.39667 55.62 3.23 56.22 3.23C56.9867 3.23 57.6033 3.49667 58.07 4.03L57.65 4.65C57.2633 4.19667 56.7867 3.97 56.22 3.97C55.8067 3.97 55.4533 4.1 55.16 4.36C54.8733 4.62 54.6633 4.94333 54.53 5.33C54.4033 5.71 54.34 6.13 54.34 6.59C54.34 6.70333 54.3433 6.79 54.35 6.85C54.5167 6.58333 54.7733 6.34333 55.12 6.13C55.4733 5.91667 55.8467 5.81 56.24 5.81C56.8733 5.81 57.3933 5.99667 57.8 6.37C58.2133 6.73667 58.42 7.26 58.42 7.94C58.42 8.54667 58.2067 9.06333 57.78 9.49C57.3533 9.91 56.7867 10.12 56.08 10.12ZM56.05 9.38C56.53 9.38 56.9033 9.23667 57.17 8.95C57.4433 8.65667 57.58 8.33 57.58 7.97C57.58 7.50333 57.4367 7.14667 57.15 6.9C56.8633 6.65333 56.4933 6.53 56.04 6.53C55.7133 6.53 55.4 6.62333 55.1 6.81C54.8 6.99 54.5567 7.23 54.37 7.53C54.4167 8.02333 54.5767 8.45667 54.85 8.83C55.1233 9.19667 55.5233 9.38 56.05 9.38ZM63.2282 10H62.3982V8.31H59.2282V7.62L62.0882 3.33H63.2282V7.58H64.1682V8.31H63.2282V10ZM62.3982 7.58V4.1L60.0582 7.58H62.3982Z" fill="white"/>
<path d="M45.6158 5.1C45.2096 5.1 44.82 5.2475 44.5328 5.51005C44.2456 5.7726 44.0842 6.1287 44.0842 6.5C44.0842 6.8713 44.2456 7.2274 44.5328 7.48995C44.82 7.7525 45.2096 7.9 45.6158 7.9C46.022 7.9 46.4116 7.7525 46.6988 7.48995C46.986 7.2274 47.1474 6.8713 47.1474 6.5C47.1474 6.1287 46.986 5.7726 46.6988 5.51005C46.4116 5.2475 46.022 5.1 45.6158 5.1ZM45.6158 8.83333C44.9388 8.83333 44.2895 8.5875 43.8108 8.14992C43.3321 7.71233 43.0632 7.11884 43.0632 6.5C43.0632 5.88116 43.3321 5.28767 43.8108 4.85008C44.2895 4.4125 44.9388 4.16667 45.6158 4.16667C46.2928 4.16667 46.9421 4.4125 47.4208 4.85008C47.8995 5.28767 48.1684 5.88116 48.1684 6.5C48.1684 7.11884 47.8995 7.71233 47.4208 8.14992C46.9421 8.5875 46.2928 8.83333 45.6158 8.83333ZM45.6158 3C43.0632 3 40.8832 4.45133 40 6.5C40.8832 8.54867 43.0632 10 45.6158 10C48.1684 10 50.3484 8.54867 51.2316 6.5C50.3484 4.45133 48.1684 3 45.6158 3Z" fill="white"/>
<path d="M0 3C0 1.34315 1.34315 0 3 0H35C36.6569 0 38 1.34315 38 3V10C38 11.6569 36.6569 13 35 13H3C1.34315 13 0 11.6569 0 10V3Z" fill="url(#paint0_linear_3270_61)"/>
<path d="M19.71 10H15.78V3.33H16.61V9.26H19.71V10ZM21.7077 10H20.8777V3.33H21.7077V10ZM26.2902 10H25.2602L22.5802 3.33H23.5302L25.7802 9.09L28.0302 3.33H28.9802L26.2902 10ZM34.2223 10H29.8523V3.33H34.2223V4.07H30.6823V6.22H34.1523V6.96H30.6823V9.26H34.2223V10Z" fill="white"/>
<path d="M10.9415 5.625V3.58333C10.9415 3.42862 10.8818 3.28025 10.7754 3.17085C10.669 3.06146 10.5247 3 10.3743 3H3.56725C3.41681 3 3.27252 3.06146 3.16614 3.17085C3.05976 3.28025 3 3.42862 3 3.58333V9.41667C3 9.57138 3.05976 9.71975 3.16614 9.82915C3.27252 9.93854 3.41681 10 3.56725 10H10.3743C10.5247 10 10.669 9.93854 10.7754 9.82915C10.8818 9.71975 10.9415 9.57138 10.9415 9.41667V7.375L13.2105 9.70833V3.29167L10.9415 5.625Z" fill="white"/>
<path d="M2.46912 19.607C2.3088 18.8593 2.78076 18.1241 3.52327 17.9649L11.5899 16.2352C12.3324 16.076 13.0643 16.5531 13.2247 17.3008L13.3749 18.0017C12.27 18.4104 11.6052 19.5858 11.8611 20.7794C12.1171 21.9729 13.2053 22.7724 14.3807 22.6922L14.531 23.3931C14.6913 24.1408 14.2193 24.876 13.4768 25.0352L5.41017 26.7649C4.66765 26.9241 3.93576 26.447 3.77543 25.6993L3.62514 24.9984C4.73011 24.5897 5.39487 23.4143 5.13894 22.2208C4.88302 21.0272 3.79481 20.2277 2.61941 20.3079L2.46912 19.607Z" fill="#E3FBE0"/>
<path d="M7.27433 21.7983C6.93822 21.8704 6.64259 21.8252 6.38745 21.6627C6.13134 21.4958 5.96894 21.2521 5.90024 20.9317C5.83057 20.6068 5.87782 20.3135 6.04201 20.0517C6.20619 19.7899 6.45633 19.623 6.79244 19.5509C7.13304 19.4779 7.43187 19.5271 7.68895 19.6985C7.94602 19.87 8.10939 20.1182 8.17906 20.4431C8.24777 20.7635 8.19954 21.0523 8.03439 21.3096C7.86827 21.5624 7.61492 21.7253 7.27433 21.7983ZM7.8423 24.1192L7.33814 24.2274L9.23368 19.0983L9.74456 18.9887L7.8423 24.1192ZM11.0114 23.1919C10.8463 23.4492 10.5957 23.6138 10.2595 23.6859C9.92344 23.758 9.62733 23.7105 9.37122 23.5436C9.11511 23.3767 8.95271 23.133 8.884 22.8126C8.81433 22.4877 8.86159 22.1943 9.02577 21.9325C9.18996 21.6708 9.4401 21.5038 9.77621 21.4318C10.1123 21.3597 10.4089 21.4094 10.666 21.5808C10.9275 21.7513 11.0932 21.999 11.1628 22.324C11.2315 22.6444 11.1811 22.9337 11.0114 23.1919ZM7.16111 21.2703C7.31797 21.2367 7.43456 21.1574 7.5109 21.0324C7.58627 20.903 7.60508 20.7503 7.56734 20.5743C7.52767 20.3892 7.44693 20.2531 7.32511 20.166C7.20329 20.0788 7.06396 20.052 6.90711 20.0857C6.75026 20.1193 6.63415 20.2008 6.55878 20.3303C6.48341 20.4597 6.46556 20.617 6.50523 20.802C6.54201 20.9735 6.6213 21.1028 6.74311 21.19C6.86941 21.2762 7.00874 21.303 7.16111 21.2703ZM9.72978 23.0844C9.85063 23.167 9.98948 23.1915 10.1463 23.1579C10.3032 23.1243 10.4198 23.045 10.4961 22.9201C10.576 22.7897 10.5965 22.6342 10.5578 22.4537C10.5182 22.2687 10.4352 22.133 10.3089 22.0468C10.1871 21.9597 10.0477 21.9329 9.89088 21.9665C9.73403 22.0002 9.61792 22.0817 9.54255 22.2111C9.46718 22.3406 9.44933 22.4978 9.489 22.6829C9.52771 22.8634 9.60797 22.9972 9.72978 23.0844Z" fill="#5AC750"/>
<defs>
<linearGradient id="paint0_linear_3270_61" x1="2.5" y1="1.44445" x2="31.0209" y2="19.3946" gradientUnits="userSpaceOnUse">
<stop stop-color="#EE135E"/>
<stop offset="1" stop-color="#F71A88"/>
</linearGradient>
</defs>
</svg>
