<svg width="18" height="21" viewBox="0 0 18 21" fill="none" xmlns="http://www.w3.org/2000/svg">
<path d="M2 21C1.45 21 0.979167 20.8042 0.5875 20.4125C0.195833 20.0208 0 19.55 0 19V7C0 6.45 0.195833 5.97917 0.5875 5.5875C0.979167 5.19583 1.45 5 2 5H4C4 3.61667 4.4875 2.4375 5.4625 1.4625C6.4375 0.4875 7.61667 0 9 0C10.3833 0 11.5625 0.4875 12.5375 1.4625C13.5125 2.4375 14 3.61667 14 5H16C16.55 5 17.0208 5.19583 17.4125 5.5875C17.8042 5.97917 18 6.45 18 7V19C18 19.55 17.8042 20.0208 17.4125 20.4125C17.0208 20.8042 16.55 21 16 21H2ZM9 13C10.3833 13 11.5625 12.5125 12.5375 11.5375C13.5125 10.5625 14 9.38333 14 8H12C12 8.83333 11.7083 9.54167 11.125 10.125C10.5417 10.7083 9.83333 11 9 11C8.16667 11 7.45833 10.7083 6.875 10.125C6.29167 9.54167 6 8.83333 6 8H4C4 9.38333 4.4875 10.5625 5.4625 11.5375C6.4375 12.5125 7.61667 13 9 13ZM6 5H12C12 4.16667 11.7083 3.45833 11.125 2.875C10.5417 2.29167 9.83333 2 9 2C8.16667 2 7.45833 2.29167 6.875 2.875C6.29167 3.45833 6 4.16667 6 5Z" fill="#FBFBFB"/>
</svg>
