<svg width="26" height="30" viewBox="0 0 26 30" fill="none" xmlns="http://www.w3.org/2000/svg">
<path d="M2.83333 29.75C2.05417 29.75 1.38715 29.4726 0.832292 28.9177C0.277431 28.3628 0 27.6958 0 26.9167V9.91667C0 9.1375 0.277431 8.47049 0.832292 7.91563C1.38715 7.36076 2.05417 7.08333 2.83333 7.08333H5.66667C5.66667 5.12361 6.35729 3.45312 7.73854 2.07187C9.11979 0.690625 10.7903 0 12.75 0C14.7097 0 16.3802 0.690625 17.7615 2.07187C19.1427 3.45312 19.8333 5.12361 19.8333 7.08333H22.6667C23.4458 7.08333 24.1128 7.36076 24.6677 7.91563C25.2226 8.47049 25.5 9.1375 25.5 9.91667V26.9167C25.5 27.6958 25.2226 28.3628 24.6677 28.9177C24.1128 29.4726 23.4458 29.75 22.6667 29.75H2.83333ZM12.75 18.4167C14.7097 18.4167 16.3802 17.726 17.7615 16.3448C19.1427 14.9635 19.8333 13.2931 19.8333 11.3333H17C17 12.5139 16.5868 13.5174 15.7604 14.3438C14.934 15.1701 13.9306 15.5833 12.75 15.5833C11.5694 15.5833 10.566 15.1701 9.73958 14.3438C8.91319 13.5174 8.5 12.5139 8.5 11.3333H5.66667C5.66667 13.2931 6.35729 14.9635 7.73854 16.3448C9.11979 17.726 10.7903 18.4167 12.75 18.4167ZM8.5 7.08333H17C17 5.90278 16.5868 4.89931 15.7604 4.07292C14.934 3.24653 13.9306 2.83333 12.75 2.83333C11.5694 2.83333 10.566 3.24653 9.73958 4.07292C8.91319 4.89931 8.5 5.90278 8.5 7.08333Z" fill="#FBFBFB"/>
</svg>
