<svg width="88" height="88" viewBox="0 0 88 88" fill="none" xmlns="http://www.w3.org/2000/svg">
<g filter="url(#filter0_f_3263_23)">
<circle cx="43.9934" cy="43.9934" r="23.5" transform="rotate(-128.101 43.9934 43.9934)" fill="url(#paint0_linear_3263_23)"/>
</g>
<path d="M64.3963 24.8751C64.6018 24.4193 65.2344 24.3971 65.4824 24.8067L65.5182 24.8751L66.1515 26.2815C66.7044 27.5092 67.624 28.5409 68.7872 29.2389L68.9829 29.3523L70.1072 29.976C70.1966 30.0254 70.272 30.096 70.3266 30.1816C70.3812 30.2671 70.4133 30.3647 70.4199 30.4656C70.4265 30.5665 70.4074 30.6674 70.3643 30.7591C70.3213 30.8509 70.2556 30.9305 70.1734 30.9908L70.1078 31.0328L68.9829 31.6565C67.7962 32.3152 66.8417 33.3159 66.2469 34.5245L66.1515 34.7272L65.5182 36.1337C65.3128 36.5895 64.6802 36.6117 64.4322 36.202L64.3963 36.1337L63.7631 34.7272C63.2101 33.4996 62.2906 32.4678 61.1274 31.7699L60.9317 31.6565L59.8074 31.0328C59.718 30.9834 59.6426 30.9127 59.5879 30.8272C59.5333 30.7417 59.5013 30.644 59.4947 30.5431C59.4881 30.4423 59.5072 30.3414 59.5502 30.2496C59.5933 30.1579 59.6589 30.0783 59.7411 30.018L59.8068 29.976L60.9317 29.3523C62.1183 28.6935 63.0729 27.6929 63.6677 26.4842L63.7631 26.2815L64.3963 24.8751ZM69.9534 24.5794C70.255 25.2557 70.7695 25.8181 71.4205 26.1832C71.5177 26.2371 71.5177 26.3751 71.4205 26.4291C70.7691 26.7941 70.2545 27.3568 69.9528 28.0334C69.9413 28.0589 69.9225 28.0805 69.8988 28.0957C69.8751 28.1109 69.8474 28.1189 69.8191 28.1189C69.7908 28.1189 69.7632 28.1109 69.7394 28.0957C69.7157 28.0805 69.697 28.0589 69.6854 28.0334C69.3837 27.357 68.869 26.7946 68.2177 26.4297C68.1958 26.4173 68.1775 26.3994 68.1648 26.3778C68.1521 26.3562 68.1454 26.3317 68.1454 26.3067C68.1454 26.2817 68.1521 26.2572 68.1648 26.2356C68.1775 26.214 68.1958 26.1961 68.2177 26.1838C68.8692 25.8185 69.3839 25.2557 69.6854 24.5788C69.697 24.5533 69.7157 24.5317 69.7394 24.5165C69.7632 24.5014 69.7908 24.4933 69.8191 24.4933C69.8474 24.4933 69.8751 24.5014 69.8988 24.5165C69.9225 24.5317 69.9419 24.5539 69.9534 24.5794Z" fill="#FBFBFB"/>
<defs>
<filter id="filter0_f_3263_23" x="0.492432" y="0.492432" width="87.002" height="87.0021" filterUnits="userSpaceOnUse" color-interpolation-filters="sRGB">
<feFlood flood-opacity="0" result="BackgroundImageFix"/>
<feBlend mode="normal" in="SourceGraphic" in2="BackgroundImageFix" result="shape"/>
<feGaussianBlur stdDeviation="10" result="effect1_foregroundBlur_3263_23"/>
</filter>
<linearGradient id="paint0_linear_3263_23" x1="39.2227" y1="20.4934" x2="48.764" y2="67.4934" gradientUnits="userSpaceOnUse">
<stop stop-color="#40E0D0"/>
<stop offset="0.5" stop-color="#FF8C00"/>
<stop offset="1" stop-color="#FF0080"/>
</linearGradient>
</defs>
</svg>
